<svg xmlns="http://www.w3.org/2000/svg" width="301" height="110" viewBox="0 0 301 110">
  <path fill="#8D3174" d="M92.3,83.2 C90.1,87.3 84.7,90.3 79.2,90.3 C79.2,90.3 79.1,90.3 79.1,90.3 C70.3,90.3 63.1,83.1 63.1,74.1 C63.1,65.1 70.2,58 79,58 C79,58 79.1,58 79.1,58 C84.7,58 89.5,60.2 93.6,64.9 L87.6,68.5 C87.6,68.5 78.9,58.9 71.2,68.2 C71.2,68.2 68,72.3 70,77.5 C72,82.7 77,83.7 77,83.7 C77,83.7 82,85.1 87.6,79.7 L92.3,83.2 Z M129.4,74.1 C129.4,83 122.2,90.2 113.3,90.2 C104.4,90.2 97.2,83 97.2,74.1 C97.2,65.2 104.4,58 113.3,58 C122.2,58 129.4,65.2 129.4,74.1 Z M123.3,74 C123.3,68.5 118.8,64.1 113.3,64.1 C107.8,64.1 103.3,68.5 103.3,74 C103.3,79.5 107.8,83.9 113.3,83.9 C118.8,83.9 123.3,79.5 123.3,74 Z M168.2,94.2 L168.2,94.2 C168.2,94.4 168.2,94.5 168.2,94.6 L168.2,94.7 L168.2,94.7 C168,99.3 166.4,103.3 163.2,106.1 C160.4,108.5 156.2,110 152.2,110 C143.4,110 136.3,103 136.1,94.2 L142.2,94.2 C142.3,99.5 146.7,104 152.2,103.8 C162.6,103.4 162.3,93.8 162.4,88.1 C162.4,87.7 162.4,87.3 162.4,86.9 C159.6,88.9 155.9,90.1 152.3,90.1 C143.4,90.1 136.2,82.9 136.2,74 C136.2,67 140.7,61 147,58.8 C148.7,58.2 153.2,57.2 158.7,59.7 C160.1,60.3 161.3,60.9 162.4,61.5 C162.7,58.9 162.6,58.4 162.6,58.4 L168.4,58.4 L168.4,72 C168.4,72.6 168.4,73.3 168.4,74.1 C168.4,74.4 168.4,74.7 168.4,75.1 L168.4,94.2 L168.2,94.2 Z M162.1,74.2 C162.1,68.8 157.7,64.3 152.2,64.3 C146.7,64.3 142.3,68.7 142.3,74.2 C142.3,79.6 146.7,84.1 152.2,84.1 C157.7,84.1 162.1,79.7 162.1,74.2 Z M56.4,75.6 C56.4,75.6 56.4,75.7 56.4,75.7 C56.4,75.7 56.4,75.7 56.4,75.7 C56.4,75.7 56.4,75.7 56.4,75.7 C56.3,76.5 55.7,77.2 54.9,77.2 C54.9,77.2 54.9,77.2 54.8,77.2 L49.5,77.2 L31.6,77.2 C31.4,77.2 31.3,77.4 31.3,77.6 C31.9,79.5 32.9,81.1 34.3,82.2 C35.9,83.4 38.1,83.7 40.3,83.7 C43,83.7 44.7,82.9 47.3,81.4 L51.4,85.6 C48.7,88.8 44.7,90.3 40.4,90.3 C31.5,90.3 24.3,83.1 24.3,74.2 C24.3,65.3 31.5,58 40.4,58 C49.3,58 56.5,65.2 56.5,74.1 C56.5,74.6 56.5,75 56.4,75.6 C56.4,75.5 56.4,75.5 56.4,75.6 Z M48.9,70.9 C49.1,70.9 49.3,70.7 49.2,70.5 C47.9,66.8 44.4,64.1 40.3,64.1 C36.2,64.1 32.7,66.8 31.4,70.5 C31.3,70.7 31.5,70.9 31.7,70.9 L48.9,70.9 Z M300.8,75.9 C300.8,75.9 300.8,76 300.8,76 C300.8,76 300.8,76 300.8,76 C300.8,76 300.8,76 300.8,76 C300.7,76.8 300.1,77.5 299.3,77.5 C299.3,77.5 299.3,77.5 299.2,77.5 L293.9,77.5 L276,77.5 C275.8,77.5 275.7,77.7 275.7,77.9 C276.3,79.8 277.3,81.4 278.7,82.5 C280.3,83.7 282.5,84 284.7,84 C287.4,84 289.1,83.2 291.7,81.7 L295.8,85.9 C293.1,89.1 289.1,90.6 284.8,90.6 C275.9,90.6 268.7,83.4 268.7,74.5 C268.7,65.6 275.9,58.4 284.8,58.4 C293.7,58.4 300.9,65.6 300.9,74.5 C300.8,74.9 300.8,75.3 300.8,75.9 C300.8,75.8 300.8,75.8 300.8,75.9 Z M293.2,71.2 C293.4,71.2 293.6,71 293.5,70.8 C292.2,67.1 288.7,64.4 284.6,64.4 C280.5,64.4 277,67.1 275.7,70.8 C275.6,71 275.8,71.2 276,71.2 L293.2,71.2 Z M18.8,58 C0.7,58.8 0.899952484,74.4 0.899952484,74.4 L0.899952484,90 L6.9,90 L6.9,78.9 C6.9,78.9 6.8,76.1 7.2,73.1 C7.6,69.7 10.6,66.2 13.8,65.2 C17.1,64.1 19.1,63.9 19.7,63.8 C19.8,63.8 19.9,63.7 20,63.6 C20.3,62.1 20.3,61.1 20.3,60.3 C20.3,57.7 18.8,58 18.8,58 Z M208.6,73.9 C208.6,66.9 204.6,60.4 198.1,58.7 C190,56.5 183.8,60.1 182.8,60.7 C182.5,58.1 182.6,58.5 182.6,58.5 L176.7,58.5 L176.7,90 L182.7,90 C182.7,89 182.7,88.1 182.7,87.2 C182.7,86.8 182.7,86.4 182.7,86 C182.7,86 182.7,86 182.7,86 L182.7,74.5 C182.7,74.3 182,64.4 192.7,64.1 C198.2,64 202.6,68.4 202.7,73.8 L202.7,73.8 L202.7,74.2 L202.7,86.2 L202.7,90 L208.6,90 L208.6,74.2 C208.6,74.1 208.6,74 208.6,73.9 Z M231.2,58.2 L231.2,64 L251.3,64 C251.3,64 252,64 251.9,64.8 L233.4,83.3 C233.4,83.3 229.9,85.9 231.3,89.8 L263.1,89.8 L263.1,83.8 L242.1,83.8 C242,83.8 241.9,83.7 242,83.6 L260.9,64.8 C260.9,64.8 264.3,62.1 263,58.2 L231.2,58.2 L231.2,58.2 Z M263.8,18.5 C263.2,14.5 261.5,11 258.9,7.9 C256.1,4.7 252.7,2.5 248.5,1.5 C245.8,0.9 243.1,0.8 240.3,1.1 C237.2,1.4 234.3,2.3 231.5,3.6 C227.2,5.6 223.6,8.5 220.9,12.3 C219.5,14.3 218.4,16.4 217.5,18.7 C216.1,22.3 215.2,26 214.6,29.8 C214.3,31.8 214.1,33.8 213.8,35.8 C213.7,36.7 213.5,37.6 213.4,38.5 C213.3,39.1 213,39.2 212.5,39.1 C210.3,38.3 208.2,37.4 206.2,36.2 C204.7,35.3 203.3,34.4 202,33.3 C198.8,30.6 196.4,27.2 195,23.2 C194.4,21.3 194,19.3 194.1,17.3 C194.2,15 194.7,12.7 195.6,10.6 C196.2,9.1 196.8,7.7 197.6,6.3 C197.9,5.8 198.2,5.2 198.5,4.7 C198.5,4.6 198.5,4.4 198.4,4.4 C198.3,4.3 198.2,4.3 198.1,4.4 C195.2,5.8 192.6,7.5 190.4,9.9 C188.7,11.7 187.4,13.9 186.6,16.3 C185.4,19.8 185.2,23.4 185.9,27.1 C186.3,29.5 187.2,31.7 188.3,33.7 C189.8,36.5 191.8,39 194.1,41.2 C198.4,45.4 203.5,48.3 209.3,50 C210.1,50.2 210.9,50.5 211.8,50.7 C213,51 213.7,51.8 213.9,53 C214,53.7 214.1,54.3 214.2,55 C214.7,58.5 215.2,62.1 215.8,65.6 C216.5,69.9 217.2,74.1 218,78.4 C218.4,80.4 218.7,82.5 219.2,84.5 C220,87.7 220.9,90.8 221.8,94 C221.8,94.1 221.8,94.1 221.9,94.2 C222,94.3 222.1,94.4 222.2,94.4 C222.3,94.4 222.4,94.3 222.4,94.2 C222.5,90.7 222.6,87.2 222.7,83.6 C222.8,80.3 222.8,77 222.9,73.8 C223,70.3 223.1,66.9 223.2,63.4 C223.3,60.5 223.4,57.7 223.5,54.8 C223.5,54.3 223.5,53.8 223.6,53.4 C223.7,52.8 224.1,52.4 224.7,52.3 C225.2,52.2 225.7,52.2 226.2,52.2 C228.5,52 230.8,52 233.1,51.7 C236.8,51.2 240.4,50.4 243.9,49.1 C247.9,47.6 251.6,45.6 254.7,42.8 C260.8,37.4 264,30.6 264.2,22.2 C263.9,20.8 263.9,19.6 263.8,18.5 Z M254.2,10.4 C254.3,10.4 254.4,10.5 254.6,10.5 C256,10.9 256.9,11.7 257.1,13.2 C257.4,15.1 257.4,16.9 257.2,18.8 C256.6,23.3 254.6,27.1 251.4,30.3 C247.6,34.3 243,37.1 237.7,38.7 C235.1,39.5 232.5,40 229.8,40.3 C228.9,40.4 228,40.5 227.1,40.6 C226.8,40.6 226.5,40.6 226.2,40.6 C225.7,40.6 225.5,40.3 225.6,39.9 C225.8,39 226,38.1 226.2,37.2 C226.9,34.2 227.7,31.2 228.7,28.3 C229.6,25.8 230.7,23.3 232.2,21.1 C234.8,17.2 238.2,14.1 242.4,11.9 C244.4,10.9 246.5,10.3 248.7,10 C249.3,9.9 249.9,9.9 250.5,9.9 C251.8,9.9 253,10.2 254.2,10.4 Z"/>
</svg>
